<?xml version="1.0" encoding="UTF-8"?>
<svg width="268px" height="257px" viewBox="0 0 268 257" version="1.1" xmlns="http://www.w3.org/2000/svg" xmlns:xlink="http://www.w3.org/1999/xlink">
    <!-- Generator: Sketch 64 (93537) - https://sketch.com -->
    <title>Logo</title>
    <desc>Created with Sketch.</desc>
    <g id="Logo" stroke="none" stroke-width="1" fill="none" fill-rule="evenodd">
        <g id="Gopher" transform="translate(68.000000, 28.000000)">
            <g id="layer5" transform="translate(5.000000, 0.000000)" fill-rule="nonzero">
                <g id="g4537" transform="translate(16.855091, 130.280629) rotate(18.020134) translate(-16.855091, -130.280629) translate(1.855091, 124.780629)">
                    <path d="M29.9430104,5.20797904 C29.5361056,6.59598059 28.8018992,7.5488885 27.8005228,8.16528645 C26.7991427,8.7816844 25.5324021,9.07018565 24.0874126,9.2270071 C22.6424341,9.38382199 21.0203863,9.42286675 19.3061647,9.44372144 C17.5919505,9.46456629 15.7875112,9.45221014 13.9639375,9.39453939 C12.1403712,9.3368588 10.4193186,9.17735309 8.85476889,8.92109581 C7.29022287,8.66483853 5.87963784,8.31966289 4.72013221,7.88612605 C3.56063024,7.45258922 2.65600598,6.92789222 2.12898793,6.28318984 C1.60197355,5.63847764 1.45582526,4.87379938 1.78419649,3.96294825 C2.11255673,3.05209712 2.75368113,2.43835394 3.63696609,2.09083816 C4.52025104,1.74331911 5.6433304,1.66526564 6.92261602,1.74762902 C8.2019053,1.82999895 9.63350366,2.06947219 11.1736849,2.27430562 C12.7138662,2.47914233 14.366066,2.6352755 16.1394303,2.58811566 C17.9127947,2.54096238 19.7371558,2.19277145 21.4868807,1.87146906 C23.2365981,1.5501765 24.9140015,1.27981289 26.3237551,1.29394544 C27.7335197,1.30807143 28.865038,1.59650385 29.5194656,2.2273916 C30.1739042,2.85826951 29.5375231,6.59627884 29.9430104,5.20798887 L29.9430104,5.20797904 Z" id="path4539" fill="#E1D6B9"></path>
                    <path d="M27.8527206,0.579984133 C26.5376751,0.474973284 24.9981197,0.59155368 23.3632201,0.800601964 C21.4947726,1.03952787 19.5062011,1.384792 17.4981106,1.4441015 C15.4900164,1.50342411 13.617178,1.3529905 11.8550215,1.1577044 C10.0928505,0.962447805 8.43888987,0.743884962 6.95040903,0.715023366 C5.46193179,0.68614866 4.1440829,0.850288745 3.10196267,1.29528041 C2.05985686,1.74027208 1.2957347,2.45914738 0.896100971,3.46021476 C0.496474462,4.46128542 0.649528363,5.3596198 1.24471432,6.14614254 C1.8399075,6.93267184 2.87405411,7.60872998 4.20213883,8.18187487 C5.53023436,8.75502304 7.14726735,9.22847645 8.9362925,9.58550678 C10.7253213,9.94254039 12.6890554,10.1743312 14.7658165,10.2598705 C16.8425668,10.3454327 18.8219379,10.3581035 20.6606413,10.3317426 C22.4993302,10.3053916 24.1959731,10.2494087 25.6901906,10.0449063 C26.2587317,9.96709537 26.7970921,9.86372982 27.3032729,9.72984426 C28.3254483,9.45911358 28.6043555,7.87156191 27.6882222,8.30292577 C26.8394353,8.70257333 25.8372986,8.92182773 24.7171523,9.04997767 C23.3520678,9.20615673 21.818379,9.24832822 20.1964464,9.27161153 C18.5745246,9.29488172 16.866347,9.28481982 15.1403459,9.2318326 C13.4143377,9.178829 11.7857916,9.02860842 10.3058942,8.78519563 C8.82598949,8.54177301 7.49211037,8.21280457 6.3961844,7.79859511 C5.30026926,7.38438564 4.4457565,6.88205753 3.94845129,6.26485987 C3.45114608,5.64765565 3.31386264,4.91579165 3.62583701,4.04241864 C3.93780777,3.16904891 4.5454232,2.57918226 5.38044568,2.24352773 C6.21546455,1.90787975 7.27557054,1.82892497 8.48356381,1.90291435 C9.69155348,1.97690702 11.0439596,2.2007204 12.5003402,2.39281094 C13.9567101,2.58493753 15.5206229,2.73246401 17.2010949,2.68738211 C18.8815669,2.64229692 20.612013,2.31076876 22.2686218,2.00115063 C23.9252307,1.6915325 25.5094131,1.42645876 26.839042,1.4322042 C27.005247,1.4328597 27.1678873,1.43748097 27.3254692,1.44649407 C27.7303922,1.46969871 28.1083275,1.51371216 28.4441831,1.60295827 C28.8314992,1.70587152 29.5101989,0.749269881 28.4017605,0.638205504 C28.2218705,0.620179297 27.8427337,0.703335829 27.8527206,0.579977578 L27.8527206,0.579984133 Z" id="path4541" fill="#394655"></path>
                </g>
                <g id="g4640" transform="translate(74.586032, 176.185949) rotate(60.120743) translate(-74.586032, -176.185949) translate(64.586032, 151.685949)">
                    <path d="M7.3782842,31.2427489 C9.31865473,34.4200309 12.9215932,35.7499816 15.1812113,37.4433142 C17.4408276,39.1366546 18.3470827,41.1766041 19.0414313,42.7774488 C19.7357782,44.3782974 20.0783447,45.6272839 19.864446,46.5776504 C19.6505491,47.528013 18.8974425,48.1707888 17.4220946,48.4969154 C15.9467518,48.823042 14.6468109,48.5450001 13.4058878,47.8085638 C12.164963,47.0721234 10.9974211,45.8674284 9.61958966,44.377017 C8.2417565,42.8866137 6.59705284,41.1657705 5.11712237,38.719177 C3.6371919,36.2725835 2.04294468,33.174762 1.08019225,29.0928328 C0.117438083,25.0109076 0.0715850874,20.5791585 0.143200957,16.7744296 C0.214816826,12.9696966 0.406764102,9.7726183 0.616928026,7.30135419 C0.82709544,4.83009407 1.0905452,3.04358368 1.44917926,1.84888448 C1.80780983,0.654193252 2.26060773,0.0432718286 2.79571285,0.0432718286 C3.33081972,0.0432718286 3.79063704,0.773585391 4.12587013,2.23680522 C4.46110671,3.70001708 4.65752136,5.92420823 4.69914421,8.92201513 C4.74076707,11.919826 4.58205039,15.7351372 4.75850401,19.7708205 C4.93495763,23.8065077 5.43791716,28.0654629 7.3782842,31.2427489 L7.3782842,31.2427489 Z" id="path4642" fill="#394655"></path>
                    <path d="M6.24758729,31.3575819 C7.70476395,34.241202 10.3301872,35.8827123 12.6893157,37.282702 C15.0484406,38.6827076 16.4856545,40.2782672 17.2969417,41.7879922 C18.1082323,43.2977132 18.5255965,44.564725 18.4993295,45.4897588 C18.4730607,46.4147886 17.9634498,47.0261807 16.7559649,47.2996075 C15.5484835,47.5730343 14.4664934,47.227981 13.4087346,46.4386654 C12.3509811,45.6493419 11.3132409,44.4179379 9.98567575,42.989241 C8.65811412,41.56054 7.02987051,39.9506408 5.62655707,37.7179296 C4.22324538,35.4852145 2.8664356,32.6705444 1.98040138,29.2434371 C1.09436541,25.8163339 0.931420337,22.1430113 0.935121755,18.905036 C0.938952607,15.6670647 1.09821876,12.8625899 1.26074867,10.6604129 C1.42327858,8.45823977 1.6126023,6.8323296 1.85080378,5.75235965 C2.089007,4.67238572 2.38016637,4.12913792 2.72645016,4.15127166 C3.07273047,4.17340938 3.35036908,4.88801513 3.53137555,6.25539258 C3.71238203,7.62277401 3.78386707,9.66358103 3.78844608,12.2995418 C3.79301638,14.9355066 3.71232446,18.1872073 3.94773841,21.5833177 C4.18315061,24.9794362 4.79040713,28.4739578 6.24758729,31.3575819 L6.24758729,31.3575819 Z" id="path4644" fill="#E1D6B9"></path>
                </g>
                <g id="g4594" transform="translate(129.578164, 136.055269) rotate(-67.170399) translate(-129.578164, -136.055269) translate(121.578164, 113.055269)">
                    <path d="M5.80908827,29.4302685 C7.33665202,32.4232538 10.1730784,33.6760613 11.9519709,35.2711729 C13.7308621,36.8662919 14.4443147,38.787915 14.9909432,40.2959035 C15.5375703,41.8038957 15.807257,42.9804353 15.6388645,43.8756762 C15.4704734,44.7709134 14.8775875,45.3764053 13.7161145,45.6836151 C12.5546455,45.9908248 11.5312623,45.7289107 10.5543411,45.035191 C9.57741851,44.3414676 8.65826692,43.2066502 7.57356413,41.8026895 C6.48885998,40.3987363 5.19406105,38.7777099 4.02898041,36.4730299 C2.86389978,34.1683499 1.60882286,31.2502161 0.850892516,27.4050573 C0.0929607989,23.5599023 0.0568628615,19.3852148 0.113242715,15.8011773 C0.169622568,12.2171362 0.320733758,9.20550288 0.486186071,6.8775833 C0.65164113,4.54966747 0.85904291,2.86678279 1.14137888,1.74138156 C1.4237121,0.61598784 1.78017889,0.0405026305 2.20144234,0.0405026305 C2.62270716,0.0405026305 2.98470001,0.728454694 3.24861348,2.10680114 C3.5125297,3.48514007 3.66715785,5.58031804 3.69992559,8.40423855 C3.73269333,11.2281628 3.60774305,14.8221686 3.7466568,18.623764 C3.88557056,22.4253631 4.28152727,26.4372795 5.80908827,29.4302685 L5.80908827,29.4302685 Z" id="path4588" fill="#394655"></path>
                    <path d="M4.91894302,29.5384407 C6.06611064,32.2547977 8.13298466,33.801093 9.99021709,35.1198769 C11.8474468,36.4386759 12.9788986,37.9416858 13.6175874,39.3638399 C14.2562789,40.7859902 14.5848503,41.9795096 14.5641715,42.8508872 C14.5434914,43.7222611 14.1422984,44.2981897 13.1917015,44.5557565 C12.2411074,44.8133233 11.3893067,44.4882847 10.5565823,43.744753 C9.72386193,43.0012137 8.90689719,41.8412368 7.86176674,40.4954108 C6.81663903,39.149581 5.53479833,37.6330632 4.43003473,35.5298594 C3.32527251,33.4266518 2.25711907,30.7752454 1.55958542,27.5469259 C0.862050385,24.3186102 0.733771285,20.858357 0.736685239,17.8081989 C0.739701091,14.7580446 0.865083952,12.1162421 0.993036213,10.0418013 C1.12098847,7.96736426 1.27003426,6.43576426 1.45755924,5.41843747 C1.64508559,4.40110692 1.87430186,3.88936996 2.14691503,3.91021984 C2.41952546,3.93107347 2.63809747,4.60422885 2.78059547,5.8922922 C2.92309347,7.18035931 2.97937033,9.10279027 2.98297518,11.5858534 C2.98657316,14.0689203 2.92304815,17.1320076 3.10837864,20.3311282 C3.29370775,23.5302563 3.77177265,26.8220798 4.91894302,29.5384407 L4.91894302,29.5384407 Z" id="ellipse4590" fill="#E1D6B9"></path>
                </g>
                <g id="g4404" transform="translate(61.545304, 16.936984) rotate(33.231498) translate(-61.545304, -16.936984) translate(47.545304, 5.936984)">
                    <path d="M25.8708077,10.3673871 C26.2191505,11.9679366 25.9247447,13.5832703 25.2660479,14.9975765 C24.6073322,16.4118814 23.6160642,17.6292328 22.4950051,18.5779059 C21.3739195,19.5266011 20.1096043,20.2142472 18.6527215,20.5837191 C17.1958168,20.9531896 15.376804,21.2422333 13.7052974,20.8760381 C12.0337877,20.5098445 10.8798626,19.5163315 9.93769502,18.5343906 C8.99554775,17.552457 8.00507091,16.4016133 6.34658847,15.282891 C4.68814356,14.1641909 3.08394059,12.9846291 2.4121039,11.8384575 C1.7402844,10.6922564 1.31625652,9.52974181 1.19003861,8.39204221 C1.06382069,7.25435881 1.24618827,6.24689129 1.67836621,5.36500432 C2.11056448,4.48310557 2.79259812,3.72646913 3.67763092,3.09464414 C4.56268717,2.46283535 5.65064251,1.95481548 6.90544561,1.58548645 C8.16026748,1.21617805 9.58136167,0.985000606 11.14926,0.934975835 C12.7171599,0.884954011 14.2870051,1.02247793 15.8031055,1.35858333 C17.3191888,1.69470936 18.7827705,2.23088879 20.0997702,2.98272196 C21.4167495,3.73457576 22.5849841,4.70543527 23.4781091,5.87480848 C24.3712169,7.04420527 25.5224711,8.76685964 25.8708077,10.3673871 L25.8708077,10.3673871 Z" id="path4406" fill="#96D6FF"></path>
                    <path d="M9.84839614,0.154548961 C8.63254179,0.288426491 7.50616113,0.523732576 6.4781127,0.840569261 C5.10733093,1.26299777 3.91376378,1.83069155 2.93706904,2.52803838 C1.96039597,3.22538521 1.20035705,4.05169121 0.710991701,5.01560942 C0.221604696,5.97956845 0.00341108329,7.07926216 0.116471502,8.32244564 C0.229531921,9.56564952 0.664056466,10.8402208 1.37200529,12.0966899 C2.07997577,13.3531591 3.51532327,14.6521589 5.34711865,15.8549751 C7.17891403,17.0577708 8.28562824,18.3147502 9.30083283,19.3826684 C10.3125936,20.4468927 11.7580776,21.1249334 13.6851513,21.2739742 C13.9072219,21.2903007 13.9521645,20.6521172 13.7596585,20.6030355 C12.0684523,20.1895254 11.0343826,19.1331786 10.0369601,18.3361788 C9.11558269,17.3842401 8.14761656,16.2666689 6.52593596,15.1809956 C4.90429867,14.0953427 3.33579112,12.9503021 2.67735497,11.8363839 C2.01896213,10.7224249 1.60122337,9.59130258 1.47594723,8.48456806 C1.35054114,7.37781313 1.52901199,6.39844594 1.95067104,5.53922158 C2.37235175,4.67997682 3.03791374,3.93981367 3.90362733,3.32242601 C4.7694059,2.70503836 5.83262868,2.20840578 7.06087202,1.84548747 C7.67501535,1.66405893 8.33269343,1.51652834 9.02582744,1.40742631 C9.71896145,1.29824266 10.4501288,1.2268141 11.2172503,1.20001818 C12.7515581,1.14797738 14.2848263,1.28001817 15.7665892,1.60552832 C17.2483305,1.93097725 18.6797144,2.45291595 19.9649428,3.18367093 C21.2501495,3.91440551 22.3882694,4.85685434 23.2594628,5.99291539 C24.1306344,7.12897644 25.2546326,8.79950679 25.5970194,10.3536698 C25.878176,11.6299757 25.7559971,12.9219143 25.3092135,14.0960978 C25.225826,14.31471 26.3871861,14.6964242 26.6691224,14.0734447 C27.1946801,12.9105878 27.1769196,11.5416696 26.8913446,10.2487515 C26.5050765,8.50046602 25.3961964,6.63779284 24.4293349,5.35040529 C23.4624733,4.06305855 22.1957851,2.9975077 20.7712239,2.18150783 C19.3466626,1.36550795 17.767672,0.793691717 16.1303102,0.44638565 C14.4929052,0.099120398 12.7940316,-0.0263897863 11.0946165,0.0557326497 C10.6697303,0.0763448914 10.2539192,0.110426519 9.84861273,0.154508144 L9.84839614,0.154548961 Z" id="path4408" fill="#394655"></path>
                    <path d="M5.9764976,11.9393542 C5.95513265,11.5535497 6.31741435,11.2103115 7.10538616,11.0257686 C8.30231638,10.7454445 10.238795,11.2977076 11.474094,11.8614086 C12.1517383,12.1706495 12.8642017,12.4346719 13.4547427,12.9213865 C13.6551868,13.0866029 13.8484831,13.2578352 13.981486,13.5709615 C13.7221464,13.6559765 13.3395959,13.4352115 13.063154,13.2570602 C11.9736068,12.5549409 10.7652803,12.0651072 9.51713857,11.9123704 C8.46696558,11.7839094 8.13024896,11.4541116 7.2098216,11.534923 C6.62721015,11.5860734 6.44262523,11.8500502 5.97649917,11.9393542 L5.9764976,11.9393542 Z" id="path4365-1-2" fill="#394655"></path>
                    <path d="M11.2308669,11.7421592 C11.2754826,11.3995915 11.3668501,12.3173394 11.1810064,12.5466265 C10.4835812,13.4070903 9.89831301,14.3619576 9.23874987,15.2525479 C9.02391968,15.5424932 8.72356556,15.2586477 8.85917823,14.9433202 C8.99696916,14.6230184 9.1813852,14.3541117 9.38288789,14.0864957 C9.57179803,13.8358016 9.82284215,13.6359899 9.99091117,13.3704867 C10.3140032,12.860298 10.3655399,12.3938117 10.6561803,11.8618314 C10.7558073,11.6793984 11.2069968,11.9245186 11.2306651,11.7426263 L11.2308669,11.7421592 Z" id="path4367-9-2" fill="#394655"></path>
                </g>
                <g id="g4198" transform="translate(88.774961, 104.050136) scale(-1, 1) translate(-88.774961, -104.050136) translate(21.274961, 14.050136)">
                    <path d="M132.169402,104.999406 C129.465505,127.42698 124.690908,149.205852 107.819689,164.078168 C86.5357132,182.840411 47.4104081,185.319907 19.7342689,167.517894 C11.7304597,162.369635 5.35719736,148.068356 4.33614789,138.820234 C2.20187524,119.48917 10.0919586,106.397549 8.24920705,88.5583775 C6.78246014,74.359212 -0.354711052,62.6091592 0.321541169,45.7028431 C0.775326418,34.3581871 3.53383502,21.1583212 12.0808743,14.1453589 C23.2781135,4.95787618 36.351669,-0.303051892 51.1789956,0.0591290934 C72.2947672,0.57491528 95.0663505,2.03812863 112.777303,15.6807102 C125.418204,25.4178776 132.663913,41.4991861 133.941421,58.0041595 C135.253641,74.9575693 133.894755,90.6883856 132.169402,104.999406 Z" id="path4188" fill="#394655"></path>
                    <path d="M126.880222,125.728038 C122.362792,146.353761 109.919955,165.577862 87.8572541,173.187974 C67.3577033,180.25891 40.3951288,178.599445 20.4536019,165.196399 C12.8633044,160.09483 7.07312191,145.970308 6.24071345,137.20739 C4.48860569,118.762616 11.7702107,105.246151 10.1025779,88.2227501 C8.71055176,74.0128082 1.96796457,63.7153089 2.17850885,46.8619798 C2.31610899,35.8475552 4.7884497,22.7887577 13.1580478,15.9562717 C23.7612221,7.30041524 35.9039481,1.80516798 49.8685124,1.87519932 C71.995675,1.98790839 96.944455,3.6067136 114.560447,19.5994153 C130.666039,34.2209006 132.960698,59.9670327 132.213754,80.0673083 C131.597684,96.6457047 129.986437,111.545645 126.880222,125.728038 L126.880222,125.728038 Z" id="ellipse4190" fill="#96D6FF"></path>
                </g>
                <g id="g4376" transform="translate(151.498688, 27.769759) scale(-1, 1) rotate(-18.858945) translate(-151.498688, -27.769759) translate(135.998688, 12.769759)">
                    <path d="M29.5133919,15.943136 C29.9142436,17.983391 29.5789319,19.9675899 28.8278628,21.7019505 C28.0767723,23.4363094 26.9459186,24.9203859 25.6670438,26.0777228 C24.3881387,27.2350866 22.9458751,28.0748258 21.2838478,28.5242342 C19.6217974,28.973639 17.5467849,29.3280221 15.6388448,28.8528001 C13.730903,28.3775782 12.4115084,27.0890921 11.3311998,25.7520436 C10.2509126,24.4150041 9.11162494,22.7742183 7.21113064,21.1937467 C5.31067915,19.6133075 3.47360031,17.9963669 2.69789104,16.3633587 C1.9222014,14.730302 1.42861867,13.0630429 1.274388,11.4164261 C1.12015912,9.76983076 1.31847735,8.29528261 1.80270742,6.99751617 C2.28696068,5.69973175 3.05717929,4.5790346 4.06115208,3.66555401 C5.06514985,2.7520932 6.30283937,2.04591365 7.73448385,1.60036983 C9.16614974,1.15485118 10.791157,0.970288202 12.5881583,1.12097056 C14.3851614,1.27165652 16.1881047,1.74511513 17.9311521,2.4965605 C19.6741799,3.24802744 21.3586656,4.27760697 22.8744876,5.53381398 C24.3902883,6.79004437 25.7348101,8.27317906 26.7624829,9.9224526 C27.7901344,11.5717531 29.1125473,13.9029097 29.5133919,15.943136 L29.5133919,15.943136 Z" id="path4398" fill="#96D6FF"></path>
                    <path d="M11.0986453,0.029367737 C9.70661477,0.0659663305 8.41937139,0.294919164 7.2466007,0.681445126 C5.6828488,1.19678818 4.32533554,1.99274534 3.21772015,3.00891649 C2.11010476,4.02508765 1.25199192,5.25863452 0.703521184,6.68172228 C0.155025735,8.10483494 -0.0832840354,9.71397799 0.0565391884,11.5046949 C0.19638712,13.2954367 0.70226107,15.1075401 1.51916077,16.8749783 C2.33608519,18.6424165 3.98060792,20.4068173 6.07765977,22.0606255 C8.17468693,23.7144089 9.44599357,25.469797 10.6086834,26.8881792 C11.7674445,28.3016816 13.4174525,29.1550513 15.6164006,29.3520363 C15.869807,29.3744436 15.9201622,28.5722373 15.7004082,28.5080529 C13.7696419,27.9666426 12.5859997,26.5764687 11.4433729,25.4833409 C10.3866562,24.1797339 9.27306148,22.579728 7.41451705,21.0391015 C5.55604675,19.4984999 3.75959383,17.9216732 2.999251,16.3295348 C2.23893288,14.7373466 1.75260305,13.110676 1.59958569,11.5049937 C1.44639537,9.89933618 1.64035408,8.46280404 2.11282266,7.19676657 C2.58524182,5.93070421 3.33683797,4.8344394 4.31893614,3.94257898 C5.30108371,3.05071856 6.51071891,2.36201768 7.91213849,1.92607117 C8.61286064,1.7082224 9.3641603,1.55410996 10.1568955,1.47244779 C10.9496306,1.39078562 11.786791,1.38057785 12.666054,1.45253019 C14.4246294,1.59817765 16.1856261,2.05959379 17.8892507,2.79183953 C19.5928752,3.52411016 21.2403629,4.52982457 22.7197366,5.75520524 C24.1990856,6.9805859 25.5091346,8.42593158 26.5117899,10.0348257 C27.5144452,11.6437446 28.8059384,13.9160194 29.2002305,15.9054143 C29.5240056,17.5391307 29.3855413,19.1402072 28.8764801,20.5866981 C28.7816009,20.856009 30.1071419,21.3426209 30.4287427,20.5817187 C31.028211,19.1612949 31.0076291,17.483237 30.6799254,15.8575623 C30.2367112,13.6593313 28.9642927,11.1993332 27.8529217,9.41643392 C26.7415259,7.63358448 25.2846861,6.03489816 23.6457474,4.68961354 C22.006784,3.34432891 20.1898233,2.25050401 18.3075097,1.46174208 C16.4251466,0.673029939 14.4739468,0.187687775 12.526206,0.0583229508 C12.0392338,0.0259568477 11.5629355,0.0177408369 11.0988924,0.029442428 L11.0986453,0.029367737 Z" id="path4369" fill="#394655"></path>
                    <path d="M11.0150251,12.5669379 C11.337329,12.0701068 12.1411783,11.9144526 13.3778529,12.2762682 C15.256356,12.8258661 17.3797409,14.9684459 18.5417689,16.5986734 C19.1792022,17.4929786 19.9050496,18.3570825 20.2627663,19.4071371 C20.3841654,19.7635656 20.4904037,20.122126 20.3856692,20.6122275 C19.956549,20.5234034 19.6387582,19.9609788 19.4260497,19.5313534 C18.5877135,17.8380956 17.3950177,16.320178 15.8413622,15.1924473 C14.5340941,14.2436463 14.377746,13.5797704 13.055895,12.9892062 C12.2191802,12.6153907 11.7284909,12.8057271 11.0150251,12.5669379 L11.0150251,12.5669379 Z" id="path4365-1" fill="#394655"></path>
                    <path d="M18.3204945,16.2673933 C18.6929082,15.8739979 17.9811906,17.0863051 17.5203841,17.2324669 C15.7910616,17.780979 14.1279087,18.5313657 12.4225111,19.1458578 C11.867154,19.3458396 11.7182606,18.7665438 12.1892956,18.4754319 C12.667812,18.1797615 13.1627558,17.9831537 13.6797051,17.8009885 C14.1641563,17.6304549 14.6865534,17.569995 15.1562434,17.3653524 C16.0589584,16.9722122 16.5536007,16.4295885 17.4321376,15.9849201 C17.7333672,15.8323971 18.1220656,16.4767237 18.3197809,16.2678247 L18.3204945,16.2673933 Z" id="path4367-9" fill="#394655"></path>
                </g>
                <g id="g4634" transform="translate(116.799836, 192.703563) rotate(-106.523949) translate(-116.799836, -192.703563) translate(108.799836, 187.703563)">
                    <path d="M15.9048662,3.62756387 C15.9041114,4.78136698 15.6793649,5.61727956 15.2697399,6.20457469 C14.8601148,6.79186721 14.2664955,7.13579151 13.5486868,7.36950554 C12.8308781,7.60321695 11.9901632,7.73533398 11.0917775,7.85150141 C10.1933937,7.96766622 9.23798074,8.05883819 8.27861051,8.13973194 C7.31924028,8.22062307 6.40716698,8.23082262 5.56853141,8.16233352 C4.72989583,8.0938418 3.9646434,7.95281525 3.3118442,7.71347704 C2.65904876,7.4741362 2.11933315,7.13308299 1.73944483,6.64032646 C1.35955464,6.14756206 1.13972507,5.50113572 1.12701031,4.67099153 C1.11428991,3.84084995 1.314862,3.23259198 1.67747617,2.81362359 C2.04008845,2.39465521 2.56423098,2.16758007 3.2016227,2.06717344 C3.83901441,1.96676943 4.58897789,1.99287662 5.416485,2.02508782 C6.24399211,2.05729639 7.14964124,2.0865893 8.11329613,1.99309425 C9.07695102,1.89959657 10.04614,1.60674609 10.9660187,1.32684826 C11.8858992,1.04695305 12.754392,0.788948863 13.4947117,0.73135677 C14.2350351,0.673759433 14.8453207,0.816104852 15.2631915,1.26781145 C15.6810622,1.71951804 15.9056563,2.47376076 15.9048662,3.62756911 L15.9048662,3.62756387 Z" id="path4636" fill="#E1D6B9"></path>
                    <path d="M13.7240947,0.143883338 C13.0184306,0.136777735 12.2023493,0.285405451 11.3227017,0.481362776 C10.3173931,0.705315128 9.23266865,0.984940273 8.12194826,1.0912831 C7.01122787,1.19763641 5.9747167,1.19177363 5.02703945,1.19984937 C4.07936221,1.20795133 3.2197455,1.24198481 2.48525349,1.42517827 C1.75076335,1.60836911 1.14264361,1.94103718 0.714897615,2.46578204 C0.287153503,2.99052427 0.0402366354,3.70251356 0.0276291395,4.60946644 C0.0150216435,5.5164167 0.256861642,6.26323656 0.694315407,6.85915806 C1.13176917,7.45507955 1.76461466,7.90258047 2.5311937,8.23570477 C3.29777649,8.5688317 4.19695816,8.79128952 5.17625387,8.91680698 C6.15554959,9.04232444 7.21486903,9.06398998 8.31930826,8.97518829 C9.4237456,8.88638661 10.477911,8.76896062 11.4439858,8.6213214 C12.4100568,8.47367955 13.2868141,8.30048113 14.0232593,8.00679161 C14.3034713,7.89504224 14.562704,7.76328705 14.799834,7.60837179 C15.2787439,7.29550239 15.185614,5.98994877 14.7810921,6.41771919 C14.406307,6.81404141 14.0013768,6.8586389 13.4342823,7.03404766 C12.7431864,7.24781095 11.8947828,7.29391608 11.0727139,7.38612898 C10.2506487,7.47833664 9.42077437,7.85397395 8.56752539,7.93081148 C7.71427265,8.00764638 6.89884427,8.01681549 6.13412625,7.94921787 C5.36940447,7.88160976 4.65575434,7.74450571 4.04076445,7.51843479 C3.42577645,7.29236386 2.91230889,6.97296307 2.5571068,6.51840899 C2.20190472,6.06384705 2.00663531,5.47299386 1.99660952,4.73522775 C1.98657998,3.99746688 2.16629513,3.47163652 2.49880372,3.134338 C2.83131043,2.79704211 3.55582371,2.98101692 4.13438358,2.94713027 C4.71294157,2.913241 5.43394168,2.80427356 6.16432591,2.83770661 C6.89470826,2.87114751 7.39608203,2.71153889 8.24332834,2.51942279 C9.09057465,2.32732504 9.96549723,1.90498477 10.8565348,1.54377629 C11.7475705,1.18256781 12.5923443,0.929550655 13.3043855,0.874158415 C13.3933907,0.867236352 13.4807155,0.863093602 13.5656957,0.862385664 C13.7840612,0.860550268 13.9890949,0.873974876 14.1772533,0.924351242 C14.3942396,0.982444135 14.6129514,0.174078218 14.0195862,0.156702266 C13.9232856,0.153870513 13.8249058,0.144903294 13.7240966,0.143906936 L13.7240947,0.143883338 Z" id="path4638" fill="#394655"></path>
                </g>
            </g>
            <g id="layer9" opacity="0.06000001" transform="translate(52.000000, 14.000000)" fill="#000000">
                <path d="M57.2687901,0.244394146 C55.7559817,0.262151775 54.2444297,0.331075959 52.7391551,0.448848458 C44.6305564,0.699519226 36.4677579,1.35633538 28.4235531,2.68792451 C55.9910399,2.27450655 82.5422137,26.3314879 82.8821047,52.4714985 C83.2638724,81.832688 75.1657545,91.692097 75.0952771,108.431837 C75.0099976,128.687558 82.7388311,143.645085 72.1504667,157.957917 C64.1992901,168.705928 56.2227675,175.522383 48.5257135,179.538281 C54.0775259,179.427875 59.6285331,178.795928 65.0822244,177.697353 C67.0705286,180.472316 66.5535904,185.352854 70.3554114,186.466575 C73.4334741,187.15074 75.1758558,183.587991 74.3168848,180.985193 C74.0279599,179.065568 73.2876078,177.358174 72.5350042,175.590722 C81.3669607,172.190267 91.0669144,168.639801 96.4405413,160.237552 C102.890954,151.178986 105.937887,139.840181 105.059282,128.795338 C104.980575,126.699628 104.827314,124.642434 104.636047,122.563181 C106.366519,121.787732 108.503328,118.756348 106.340527,117.394689 C104.993173,117.568608 102.986997,117.032001 103.367154,115.258256 C100.891668,103.324544 99.2514502,90.7190933 102.786644,78.8130985 C105.893447,67.4506439 109.57226,56.0114332 108.714444,44.0598704 C108.495508,38.3674143 107.285183,32.7580418 105.649674,27.3466988 C105.532337,25.2339138 108.471119,25.0447633 109.861472,24.0514125 C114.056764,22.3870606 118.327723,19.9155207 120.089173,15.5032032 C122.461459,10.4349172 119.904445,3.87505807 114.711415,1.82126318 C106.985566,-1.71962936 97.2525176,0.96256524 91.8466811,7.4019776 C90.6906738,9.25942566 89.3391578,9.31862341 87.7707499,7.90442528 C78.5253811,2.48740739 67.8584658,0.120247548 57.2687901,0.244394146 L57.2687901,0.244394146 Z M102.163313,13.5472194 C102.233618,13.5417946 102.305836,13.5459479 102.37905,13.559637 C104.971608,14.0749219 101.565691,17.0656754 101.320131,14.5761193 C101.275071,14.0670729 101.671202,13.5852097 102.163313,13.5472194 Z M105.002469,118.125592 C106.421085,118.181772 106.506537,121.131407 104.715917,120.781027 C103.834965,120.502677 103.896572,117.801644 104.519945,118.207539 C104.694627,118.144557 104.855713,118.119781 105.002469,118.125592 Z M9.9130639,179.89173 C10.3206794,180.791724 10.9822403,181.561494 11.9930221,182.100177 C12.8677817,182.258436 13.6119745,182.064238 14.2607233,181.668917 C12.759964,181.130746 11.310057,180.532408 9.9130639,179.89173 L9.9130639,179.89173 Z" id="path4432" fill-rule="nonzero"></path>
                <ellipse id="path4544" fill-rule="nonzero" cx="9.47271609" cy="74.8722143" rx="9.46499338" ry="8.76560293"></ellipse>
                <path d="M8.95130894,78.0937789 C8.84076773,78.1224708 8.7375875,78.1599101 8.63923027,78.2030455 L8.95130894,78.0937789 L8.95130894,78.0937789 Z M8.63923027,78.2030455 L1.64757003,80.6407781 C-3.0523794,85.2347702 19.8506855,146.240238 35.6754152,176.546778 C46.3206102,177.956623 58.7404428,177.510707 67.7632831,175.631281 C43.0309382,148.753129 -0.546175632,82.2315524 8.63923027,78.2030455 L8.63923027,78.2030455 Z" id="path4546"></path>
            </g>
            <g id="layer2" transform="translate(0.000000, 25.000000)" fill-rule="nonzero">
                <g id="g4818" transform="translate(74.563191, 9.683688)">
                    <path d="M63.2182577,30.1073065 C63.0963586,34.2573952 62.0756259,38.2621933 60.3428742,41.977964 C58.6101197,45.6937347 56.1661072,49.1215063 53.2013294,52.0910881 C50.2365516,55.0606728 46.7517639,57.5718176 42.9286998,59.4208855 C39.1056356,61.2699534 34.9440597,62.4558263 30.6126094,62.7533944 C26.2811563,63.0509625 22.1880493,62.4279369 18.485852,61.0206516 C14.7836546,59.6133691 11.4727654,57.4224534 8.71619241,54.6139455 C5.95961945,51.8054377 3.75786921,48.3796805 2.27728473,44.5257918 C0.796697486,40.671903 0.0379291457,36.38988 0.162343939,31.8886078 C0.286758733,27.3873356 1.28166749,23.0968112 2.9692391,19.2239165 C4.65681072,15.3510219 7.03639205,11.8963892 9.93500351,9.03757542 C12.833615,6.17876445 16.2512095,3.9158342 20.025922,2.39008016 C23.8006372,0.864326122 27.9333781,0.0742958046 32.2665415,0.135384403 C36.5997077,0.19647581 40.7244089,1.09822095 44.4741886,2.64746196 C48.2239683,4.19670296 51.5979492,6.39448215 54.4167669,9.08529386 C57.2355874,11.7761084 59.4986165,14.9608151 61.0249235,18.5061592 C62.5512333,22.0515005 63.340154,25.9572151 63.2182577,30.1073065 L63.2182577,30.1073065 Z" id="path4812" fill="#394655"></path>
                    <path d="M61.0858482,29.1592477 C61.0858482,33.0643329 60.2512354,36.8959231 58.7297134,40.4960851 C57.2081915,44.0962471 54.9989384,47.4650372 52.2601469,50.4001415 C49.5213554,53.335243 46.2531472,55.8339841 42.6331707,57.6706005 C39.013197,59.5072114 35.0430242,60.6801804 30.9050803,60.9763916 C26.7671364,61.2726055 22.8540193,60.6638182 19.3204205,59.3100866 C15.7868162,57.9563493 12.6315983,55.8580779 10.0033507,53.1880898 C7.37509753,50.5180989 5.27368171,47.2761778 3.85044068,43.6487136 C2.42720241,40.0212522 1.68254853,36.0082533 1.76832845,31.8108451 C1.85410838,27.613437 2.76186174,23.6330192 4.32269936,20.0509473 C5.88353975,16.4688753 8.09691366,13.2853288 10.7977428,10.6474274 C13.4985775,8.0095232 16.6865022,5.91676392 20.2083749,4.48298834 C23.7302448,3.04920995 27.5868239,2.27248236 31.6342609,2.25095399 C35.6816979,2.23029853 39.5381856,2.96281667 43.0533636,4.28664738 C46.5685417,5.6104781 49.7417042,7.52703453 52.4119548,9.91578301 C55.0822082,12.3045343 57.249295,15.166461 58.7499469,18.403797 C60.2505961,21.6411331 61.0858482,25.2541596 61.0858482,29.1592477 Z" id="ellipse4814" fill="#FFFFFF"></path>
                    <ellipse id="path4828" fill="#394455" cx="38.489415" cy="29.5369187" rx="8.52669669" ry="8.65580596"></ellipse>
                    <ellipse id="circle4830" fill="#FFFFFF" cx="34.7153058" cy="25.5637578" rx="4.19345715" ry="4.25695351"></ellipse>
                </g>
                <g id="g4822" transform="translate(34.569067, 34.445769) rotate(-27.195308) translate(-34.569067, -34.445769) translate(9.069067, 8.945769)">
                    <path d="M48.4984731,22.2971462 C47.0917072,25.2563786 44.9069979,28.1070724 42.3792891,30.9125298 C39.8515755,33.7179872 37.0055486,36.4967346 34.221986,39.1199632 C31.4384211,41.7431919 28.7224098,44.1940401 26.132584,46.1482666 C23.5427583,48.1024956 21.0590653,49.54959 18.5616707,50.2142628 C16.0642761,50.8789379 13.7659511,50.7001127 11.6378347,49.8119971 C9.50971579,48.9238815 6.77509539,47.9493874 5.10116985,45.8022466 C3.42724667,43.6551058 2.06725867,40.9613842 1.2017892,37.8789486 C0.336317368,34.7965106 -0.0336979063,31.3239555 0.274602082,27.6303441 C0.582904433,23.9367327 1.54266692,20.3748298 3.06688327,17.1355779 C4.59110199,13.8963308 6.67956192,10.9813586 9.21197498,8.55296546 C11.744388,6.1245747 15.9322451,3.68560401 19.1943493,2.34867673 C22.4564534,1.01174706 26.0069041,0.279296476 29.6400466,0.237091833 C33.2731915,0.194891988 36.6402825,0.842940484 39.5503071,2.00596189 C42.4603341,3.1689809 44.9131458,4.84836637 46.7235419,6.88630662 C48.5339405,8.92424926 49.7009477,11.3194323 50.0467542,13.9257201 C50.3925677,16.5320054 49.905239,19.3379138 48.4984731,22.2971462 L48.4984731,22.2971462 Z" id="path4824" fill="#394655"></path>
                    <path d="M47.0617781,21.9835136 C45.8385112,24.7734477 43.9246639,27.5243168 41.6347953,30.2355046 C39.3449242,32.9466924 36.6874196,35.6237729 33.9926542,38.0967789 C31.2978936,40.569792 28.58007,42.8263876 25.9926023,44.6048494 C23.405137,46.3833064 20.9372438,47.6798063 18.5273965,48.2715348 C16.1175446,48.8632609 13.9667928,48.6944879 12.0136481,47.8806742 C10.0605035,47.0668628 7.49275061,46.2134037 6.01429382,44.2440496 C4.5358394,42.2746883 3.35765158,39.7984899 2.63456202,36.9584504 C1.91147482,34.1184109 1.64464836,30.9136092 1.9998444,27.5020392 C2.35503809,24.0904717 3.30133993,20.7985672 4.7594439,17.8027475 C6.21754787,14.8069279 8.18731693,12.1083564 10.5594711,9.85425048 C12.9316299,7.60014936 16.9366094,5.28213684 19.9716807,4.02751054 C23.0067544,2.77288424 26.300125,2.07075835 29.6592086,1.99870152 C33.0182922,1.92665429 36.1197476,2.48742246 38.7895835,3.51722917 C41.4594194,4.54703827 43.6971302,6.04639681 45.3440895,7.87506958 C46.9910465,9.70374474 48.0466,11.8596858 48.3715764,14.2339847 C48.6965527,16.6082813 48.2850426,19.1935795 47.0617781,21.9835136 L47.0617781,21.9835136 Z" id="path4826" fill="#FFFFFF"></path>
                    <ellipse id="path4828-0" fill="#394455" transform="translate(12.366465, 17.575041) rotate(9.459045) translate(-12.366465, -17.575041) " cx="12.3664654" cy="17.5750411" rx="6.55257804" ry="6.64639732"></ellipse>
                    <ellipse id="circle4830-3" fill="#FFFFFF" transform="translate(11.146433, 14.122017) rotate(9.459045) translate(-11.146433, -14.122017) " cx="11.1464333" cy="14.1220172" rx="3.22257876" ry="3.26871938"></ellipse>
                </g>
            </g>
            <g id="layer7" transform="translate(46.000000, 74.000000)" fill-rule="nonzero">
                <path d="M10.7531025,12.8624613 L13.4487325,12.8983698 L15.0197775,12.8628418 C15.5208856,12.851504 15.9672779,13.0946134 16.2925799,13.4530093 C16.6178904,13.8114138 16.7779654,14.3077631 16.8537125,14.8494074 L17.2825618,17.9156437 L17.8782384,20.9928631 C17.9855195,21.5470698 17.8426361,22.0356168 17.5797122,22.3911869 C17.3167799,22.7467483 16.9135422,22.9493272 16.4380923,22.9608857 L14.8528783,22.9994429 L11.7174304,22.9247605 C11.1160642,22.9104368 10.5574378,22.6715466 10.1477739,22.3046474 C9.73811004,21.9377395 9.49582368,21.4388024 9.44693292,20.8942588 L9.17278225,17.8407493 L8.95043913,14.7920692 C8.91085746,14.249421 9.14803419,13.763332 9.48115518,13.4152483 C9.81427194,13.0671646 10.267446,12.8595227 10.7530898,12.8625692 L10.7531025,12.8624613 Z" id="rect4659" fill="#2E3436"></path>
                <path d="M11.2452571,13.7907331 L13.4452527,13.8209384 L14.49299,13.7770196 C14.8909995,13.7603158 15.2584824,13.9656339 15.5349149,14.2590235 C15.8113431,14.5524087 15.9727431,14.9590725 16.047889,15.4029217 L16.472323,17.9098969 L17.0035809,20.4233936 C17.098433,20.8721501 17.0027343,21.2761352 16.7964101,21.5665302 C16.5898954,21.8569208 16.2602457,22.0140317 15.865534,22.0300604 L14.7894503,22.0737672 L12.2979347,22.0185755 C11.8261424,22.0081031 11.3771085,21.8142699 11.0392758,21.5147354 C10.7014431,21.2152009 10.4851156,20.8072476 10.4299341,20.3614338 L10.1208626,17.8644938 L9.85402717,15.3706046 C9.80636408,14.9264525 9.97492271,14.527868 10.2315474,14.2427957 C10.4881636,13.9577191 10.8481662,13.785246 11.2452529,13.7907072 L11.2452571,13.7907331 Z" id="rect4661" fill="#FFFFFF"></path>
                <path d="M23.5129785,10.2626066 C23.4379257,11.2455555 22.8455681,12.1348464 22.0036343,12.9355768 C21.1617048,13.7363073 19.9989267,14.44608 18.6521467,15.0274802 C17.3053668,15.6088803 15.7862098,16.055988 14.2474016,16.2948739 C12.7085892,16.5337641 11.1495711,16.5603041 9.61722721,16.3714474 C8.08489181,16.1825777 6.71256794,15.8066472 5.52129949,15.3421779 C4.33003105,14.8777086 3.32909327,14.3266652 2.54072385,13.7153973 C1.75234597,13.1041337 1.16945408,12.4270329 0.801446184,11.6713118 C0.433434058,10.9155907 0.280758895,10.0790033 0.414261292,9.17749188 C0.547759456,8.27598043 0.961148681,7.39684599 1.59931944,6.58913541 C2.23749442,5.78142917 3.09576464,5.04608582 4.10393719,4.43416013 C5.1121055,3.82223445 6.26845741,3.33408126 7.54497672,3.0140868 C8.82149603,2.69409234 10.2195247,2.54198397 11.7490746,2.59357532 C13.2786202,2.64517533 14.8049485,2.89409645 16.2541455,3.30550739 C17.7033425,3.71690968 19.0691428,4.29354103 20.2075496,4.99780494 C21.3459479,5.70207317 22.2814257,6.51350532 22.8275341,7.42948763 C23.3869225,8.3677431 23.576923,9.42508449 23.5129785,10.2626066 L23.5129785,10.2626066 Z" id="ellipse4650" fill="#394655"></path>
                <path d="M20.2747622,10.0418872 C20.1434484,10.8226769 19.6965862,11.5518797 19.0104222,12.2052317 C18.3242581,12.8585836 17.3996177,13.4373267 16.3489129,13.899139 C15.2982123,14.3609556 14.12665,14.7023923 12.9321176,14.8817677 C11.7375811,15.0611387 10.5187833,15.0776478 9.32036895,14.9281272 C8.12195887,14.7786023 7.0516791,14.4825081 6.12293235,14.1039682 C5.1941856,13.7254282 4.41061678,13.2651089 3.79586906,12.7514889 C3.1811171,12.237869 2.73367918,11.6688625 2.46990865,11.0491129 C2.20613812,10.4293675 2.12512059,9.7571957 2.26253882,9.04528094 C2.39995705,8.33336185 2.74478321,7.64948436 3.25373147,7.02550684 C3.76267973,6.40152933 4.43461131,5.83829995 5.22605413,5.37209971 C6.01749695,4.90589513 6.9275874,4.53698799 7.93104401,4.29842668 C8.93450063,4.05986104 10.0314885,3.95153305 11.2191671,4.00181752 C12.4068414,4.05210632 13.5784757,4.25553774 14.6851663,4.58237383 C15.7918613,4.90921426 16.8319997,5.36025559 17.7104248,5.90728315 C18.5888584,6.45431937 19.3019846,7.09754086 19.7562254,7.79955452 C20.2104706,8.50156817 20.4060802,9.26109739 20.2747622,10.0418872 L20.2747622,10.0418872 Z" id="ellipse4652" fill="#E1D0CB"></path>
                <path d="M16.025228,5.2768102 C15.8337459,5.836318 15.4173806,6.33319524 14.8413171,6.75254264 C14.2652536,7.17189438 13.5317778,7.5145082 12.735945,7.77723375 C11.9401122,8.0399593 11.0852541,8.22360582 10.248722,8.32136627 C9.41218995,8.41912241 8.59400093,8.43051647 7.82733158,8.34386879 C7.06066646,8.25719948 6.41358877,8.08101342 5.86593939,7.83567971 C5.31828576,7.59033736 4.87012394,7.27595987 4.51700468,6.90588865 C4.16388965,6.5358131 3.90541079,6.10942933 3.75536029,5.63711446 C3.6053098,5.16479526 3.5639586,4.64601701 3.66571946,4.09769123 C3.76748033,3.54936545 4.00480522,3.02381914 4.36386808,2.54886455 C4.72293094,2.07390996 5.2033804,1.64988463 5.78412599,1.30590334 C6.36487158,0.961917737 7.04589636,0.698157933 7.80227871,0.541510115 C8.55865683,0.384862298 9.39049412,0.335460616 10.2674418,0.415595544 C11.1443895,0.495730473 11.9834573,0.697465548 12.7421045,0.99105417 C13.5007474,1.28464279 14.1790333,1.67003303 14.7281474,2.1170369 C15.2772657,2.56404077 15.6971489,3.07293089 15.9322894,3.61126036 C16.1674341,4.1495855 16.2167101,4.71731538 16.025228,5.27682751 L16.025228,5.2768102 Z" id="path4648" fill="#394655"></path>
            </g>
            <g id="layer12" transform="translate(98.000000, 137.000000)" fill-rule="nonzero">
                <g id="g4533" transform="translate(8.834925, 5.762466) rotate(-7.018137) translate(-8.834925, -5.762466) translate(0.834925, 1.262466)">
                    <path d="M16.0059669,3.60013416 C16.0052071,4.74520143 15.7789785,5.57478503 15.3666522,6.15763355 C14.9543258,6.74047947 14.3567919,7.0817998 13.6342495,7.3137443 C12.9117072,7.54568621 12.0654481,7.67680292 11.161138,7.79209081 C10.2568297,7.9073761 9.29511619,7.99785777 8.32941933,8.07813905 C7.36372247,8.15841772 6.44563444,8.16854005 5.60146843,8.10056951 C4.75730241,8.03259636 3.98700348,7.89263757 3.32989934,7.65511147 C2.672799,7.41758277 2.1295242,7.07911178 1.74713068,6.59008609 C1.36473527,6.10105258 1.14345602,5.45952056 1.13065742,4.63566167 C1.11785314,3.81180538 1.31974791,3.20815274 1.68475336,2.79235651 C2.04975691,2.37656028 2.57735594,2.1512044 3.21895098,2.05155799 C3.86054602,1.95191417 4.61545518,1.9778237 5.44841935,2.00979101 C6.28138351,2.04175572 7.19300499,2.07082684 8.16301477,1.97803967 C9.13302456,1.8852499 10.108605,1.59461669 11.0345498,1.31683806 C11.9604966,1.03906204 12.8347167,0.78301129 13.5799184,0.725855247 C14.325124,0.668693999 14.9394342,0.809961672 15.3600606,1.25824824 C15.780687,1.70653481 16.0067622,2.4550669 16.0059669,3.60013937 L16.0059669,3.60013416 Z" id="ellipse4523" fill="#E1D6B9"></path>
                    <path d="M13.8108142,0.142829779 C13.1004965,0.135777975 12.2790335,0.283280379 11.393585,0.477754043 C10.3816469,0.700010775 9.28976907,0.977518782 8.17172396,1.08305645 C7.05367885,1.18860452 6.01033234,1.18278613 5.05640557,1.19080073 C4.1024788,1.19884134 3.23719329,1.23261714 2.49785762,1.41442358 C1.75852384,1.59622742 1.14639381,1.92637675 0.715827019,2.44714858 C0.285262119,2.96791781 0.0367169421,3.67451638 0.0240263052,4.57460241 C0.0113356683,5.47468584 0.254770497,6.21585127 0.695109081,6.80726083 C1.13544766,7.3986704 1.7724665,7.84278314 2.54410079,8.17338524 C3.31573887,8.50398995 4.22085025,8.72476346 5.20660399,8.84933059 C6.19235774,8.97389771 7.25866294,8.99539921 8.37038546,8.90726988 C9.4821061,8.81914054 10.5432233,8.70260362 11.5156689,8.55608223 C12.4881107,8.40955823 13.3706498,8.23767115 14.1119516,7.94620526 C14.3940114,7.83530198 14.6549537,7.70454436 14.8936475,7.55080202 C15.3757155,7.24030145 15.2819715,5.94463264 14.874782,6.36916425 C14.4975254,6.76248578 14.0111198,7.02062344 13.4408707,7.20367891 C12.7459296,7.42676312 11.931882,7.55274582 11.062115,7.66362828 C10.1923499,7.77451074 9.26738052,7.86136763 8.33857174,7.93858098 C7.40976297,8.01579433 6.5268299,8.02581258 5.71491325,7.96043897 C4.90299282,7.89506276 4.16201304,7.76045137 3.53000985,7.53199894 C2.89800856,7.30354391 2.37546685,6.97775316 2.00768082,6.50740563 C1.63989291,6.0370529 1.42696675,5.42035832 1.41465683,4.62796974 C1.40234502,3.83558375 1.59668602,3.25466342 1.94774882,2.85475066 C2.29880972,2.45483791 2.80600902,2.23805088 3.42309597,2.1422114 C4.04018293,2.04637192 4.7665268,2.07131865 5.56767345,2.10206035 C6.36881821,2.13280726 7.24542679,2.16081151 8.1783837,2.07156846 C9.11134061,1.9823228 10.0498284,1.70293865 10.9404042,1.43577155 C11.8309801,1.16860706 12.6716003,0.922540731 13.3883372,0.867567885 C13.4779293,0.860698231 13.5658299,0.856586847 13.6513705,0.855884269 C13.8711761,0.85406277 14.0775619,0.867385735 14.2669611,0.917380684 C14.4853783,0.975033737 14.7055325,0.172788237 14.1082543,0.155543844 C14.0113187,0.152733531 13.91229,0.143834206 13.8108161,0.142845392 L13.8108142,0.142829779 Z" id="path4521" fill="#394655"></path>
                </g>
            </g>
        </g>
        <g id="Hammer" transform="translate(56.138793, 129.500000) rotate(11.000000) translate(-56.138793, -129.500000) translate(17.638793, 91.000000)" stroke="#000000">
            <g transform="translate(38.164012, 38.161746) scale(-1, 1) translate(-38.164012, -38.161746) translate(0.164012, 0.161746)" id="Path" stroke-width="1.375">
                <path d="M41.5102547,35.6436196 L39.0640267,33.2925036 C38.3888542,32.6429866 37.3116318,32.663284 36.6619055,33.3364813 L0.475713469,70.7801177 C-0.175709237,71.4533149 -0.155352278,72.5273859 0.519820214,73.1752114 L2.96604819,75.5263274 C3.64122068,76.1741529 4.71844312,76.1555469 5.36816942,75.4823497 L41.5560579,38.0387132 C42.2057842,37.365516 42.1854272,36.291445 41.5102547,35.6436196 Z" fill="#906C1B"></path>
                <path d="M73.8943225,41.0860783 C76.7771743,38.118582 76.6891483,33.3899141 73.696264,30.5315169 L43.9277543,2.0878155 C40.93487,-0.770581667 36.1657467,-0.683302365 33.2828949,2.28419394 L22.8329502,13.0351338 C19.9500985,16.0026301 20.0381245,20.731298 23.0310087,23.5896952 L52.7995184,52.0333966 C55.7924027,54.8917938 60.5615261,54.8045145 63.4443778,51.8370182 L73.8943225,41.0860783 Z" fill="#D4D4D4"></path>
            </g>
            <g id="Bandas" transform="translate(2.230469, 4.081128)" fill="#F5C816">
                <path d="M12.7183908,22.9137931 L10.8448276,22.9137931 L10.8448276,52.3735632 L12.7183908,52.3735632 L12.7183908,22.9137931 Z" id="Rectangle" transform="translate(11.781609, 37.643678) rotate(-43.000000) translate(-11.781609, -37.643678) "></path>
                <path d="M39.1551724,-2.37356322 L37.2816092,-2.37356322 L37.2816092,27.0862069 L39.1551724,27.0862069 L39.1551724,-2.37356322 Z" id="Rectangle" transform="translate(38.218391, 12.356322) rotate(-43.000000) translate(-38.218391, -12.356322) "></path>
            </g>
        </g>
    </g>
</svg>